<svg id="Layer_3" xmlns="http://www.w3.org/2000/svg" viewBox="0 100 1000 500"><defs><style>.cls-1{fill:#575fab}.cls-2{fill:#fff}.cls-3{fill:#5760ab}</style></defs><path class="cls-3" d="M185.48 480.07h23.02c35.51-352.42 547.63-352.16 583 0h23.02v16.21h3.98C816.46 325.74 674.66 188.1 500 188.1S184.23 325.07 181.51 495.04h3.97zm633.02 16.21h-3.98m-629.04-1.24h-3.97"/><path class="cls-1" d="M814.52 480.07H791.5c-35.37-352.16-547.49-352.42-583 0h-23.02v14.97l629.04 1.23v-16.21Zm0 16.21-629.04-1.24"/><path class="cls-2" d="M500 214.28c-154.53 0-281.03 117.29-291.5 265.79-.35 4.95-.56 9.98-.65 15.02l584.31 1.15C790.55 341.57 660.3 213.9 500 214.29Zm292.16 281.95-584.31-1.15"/><path class="cls-1" d="M500 267.1c-155.51 6.06-234.37 116.34-236.57 228.09l474.38.93C735.69 369.28 630.04 267.1 500 267.1"/><path class="cls-3" d="M816.8 480.07H183.04v14.97l633.76 1.24z"/><path class="cls-2" d="m693.71 496.98-386.37-.76c2.06-94.92 66.29-188.4 192.66-193.48 105.71 0 191.64 86.61 193.71 194.24"/><path class="cls-1" d="M804.04 495.66h-23.68v.55l23.68.05zm0 .6-23.68-.05m-2.911-35.656 23.479-3.079 1.18 8.993-23.48 3.079zm-7.212-33.852 22.886-6.081 2.313 8.708-22.886 6.08zm-11.357-31.968 21.93-8.932 3.38 8.298-21.93 8.932zm-15.126-30.17 20.646-11.596 4.359 7.76-20.647 11.595zm-18.638-27.802 19.072-14.036 5.246 7.128-19.072 14.036zm-21.905-25.466 17.234-16.24 6.035 6.404-17.234 16.24zm-24.797-22.565 15.161-18.19 6.714 5.595-15.161 18.19zm-27.479-19.618 12.869-19.877 7.294 4.722-12.869 19.878zm-29.842-16.243 10.38-21.283 7.758 3.783-10.381 21.283zm-31.891-12.622 7.717-22.387 8.112 2.796-7.718 22.387zm-33.712-8.793 4.908-23.166 8.335 1.765-4.907 23.166zm-35.225-4.655 1.994-23.597 8.44.713-1.994 23.596zm-37.372-23.915 8.403-.343.966 23.66-8.403.343zm-38.529 4.501 8.246-1.378 3.904 23.356-8.245 1.378zm-36.884 9.055 7.965-2.371 6.757 22.695-7.965 2.372zm-34.948 13.316 7.56-3.302 9.477 21.702-7.56 3.301zm-32.68 17.254 7.064-4.166 12.029 20.398-7.063 4.165zm-30.12 20.921 6.465-4.946 14.39 18.807-6.465 4.946zm-27.259 24.208 5.789-5.651 16.541 16.945-5.789 5.65zm-24.085 27.276 5.028-6.26 18.463 14.828-5.028 6.26zm-20.621 29.988 4.202-6.785 20.132 12.468-4.202 6.785zm-16.856 32.444 3.305-7.197 21.52 9.88-3.305 7.197zm-12.755 34.572 2.356-7.509 22.594 7.09-2.356 7.509zm-8.39 36.332 1.363-7.69 23.316 4.132-1.363 7.69zm-3.672 37.938.352-7.753 23.656 1.075-.352 7.752z"/></svg>